<?xml version="1.0" encoding="utf-8"?>
<!-- Generator: Adobe Illustrator 16.0.0, SVG Export Plug-In . SVG Version: 6.00 Build 0)  -->
<!DOCTYPE svg PUBLIC "-//W3C//DTD SVG 1.1//EN" "http://www.w3.org/Graphics/SVG/1.1/DTD/svg11.dtd">
<svg version="1.1" id="Layer_1" xmlns="http://www.w3.org/2000/svg" xmlns:xlink="http://www.w3.org/1999/xlink" x="0px" y="0px"
	 width="91px" height="68.156px" viewBox="0 0 91 68.156" enable-background="new 0 0 91 68.156" xml:space="preserve">
<g id="Captions">
</g>
<g id="Your_Icon">
	<path d="M84.5,0.578h-78c-3.59,0-6.5,2.91-6.5,6.5s2.91,6.5,6.5,6.5h78c3.59,0,6.5-2.91,6.5-6.5S88.09,0.578,84.5,0.578z"/>
	<path d="M84.5,27.578h-78c-3.59,0-6.5,2.91-6.5,6.5s2.91,6.5,6.5,6.5h78c3.59,0,6.5-2.91,6.5-6.5S88.09,27.578,84.5,27.578z"/>
	<path d="M91,61.078c0-3.59-2.91-6.5-6.5-6.5h-78c-3.59,0-6.5,2.91-6.5,6.5s2.91,6.5,6.5,6.5h78C88.09,67.578,91,64.668,91,61.078z"
		/>
</g>
</svg>
