<?xml version="1.0" encoding="utf-8"?>
<!-- Generator: Adobe Illustrator 16.0.0, SVG Export Plug-In . SVG Version: 6.00 Build 0)  -->
<!DOCTYPE svg PUBLIC "-//W3C//DTD SVG 1.1//EN" "http://www.w3.org/Graphics/SVG/1.1/DTD/svg11.dtd">
<svg version="1.1" id="Layer_1" xmlns="http://www.w3.org/2000/svg" xmlns:xlink="http://www.w3.org/1999/xlink" x="0px" y="0px"
	 width="91px" height="68.156px" viewBox="0 0 91 68.156" enable-background="new 0 0 91 68.156" xml:space="preserve">
<g id="Captions">
</g>
<g>
	<path d="M77.673,57.058L22.519,1.905c-2.539-2.539-6.653-2.539-9.192,0c-2.538,2.539-2.538,6.654,0,9.192l55.153,55.155
		c2.539,2.537,6.654,2.537,9.193,0C80.211,63.715,80.211,59.599,77.673,57.058z"/>
	<path d="M22.519,66.252l55.154-55.154c2.538-2.539,2.538-6.654,0-9.192c-2.539-2.539-6.654-2.539-9.193,0L13.326,57.06
		c-2.538,2.539-2.538,6.654,0,9.191C15.864,68.791,19.979,68.791,22.519,66.252z"/>
</g>
</svg>
